<?xml version="1.0" standalone="no"?>
<!DOCTYPE svg PUBLIC "-//W3C//DTD SVG 20010904//EN"
 "http://www.w3.org/TR/2001/REC-SVG-20010904/DTD/svg10.dtd">
<svg version="1.0" xmlns="http://www.w3.org/2000/svg"
 width="896.000000pt" height="896.000000pt" viewBox="0 0 896.000000 896.000000"
 preserveAspectRatio="xMidYMid meet">
<metadata>
Created by potrace 1.11, written by Peter Selinger 2001-2013
</metadata>
<g transform="translate(0.000000,896.000000) scale(0.100000,-0.100000)"
fill="#000000" stroke="none">
<path d="M6276 8938 c-4 -12 -15 -54 -21 -83 -4 -14 -46 -183 -90 -355 -21
-80 -39 -156 -42 -169 -2 -14 -6 -28 -9 -33 -3 -4 -7 -16 -9 -25 -1 -10 -17
-74 -35 -143 -17 -69 -33 -133 -35 -143 -2 -10 -7 -27 -10 -37 -3 -10 -8 -27
-10 -37 -2 -10 -47 -191 -100 -403 -53 -212 -99 -393 -101 -402 -2 -10 -6 -28
-10 -40 -3 -13 -7 -32 -9 -43 -7 -28 -9 -39 -56 -225 -43 -173 -47 -191 -48
-201 -1 -3 -103 -5 -228 -5 l-228 2 -95 -50 c-52 -27 -108 -57 -125 -66 -16
-10 -56 -32 -87 -49 -32 -17 -83 -44 -113 -61 -30 -16 -80 -43 -110 -60 -30
-16 -79 -43 -107 -59 -29 -15 -87 -46 -129 -68 -41 -22 -86 -47 -100 -55 -13
-9 -62 -36 -109 -60 -85 -45 -181 -97 -275 -149 -27 -15 -81 -44 -120 -64 -38
-21 -88 -47 -110 -60 -22 -12 -71 -40 -110 -61 -38 -21 -90 -49 -115 -62 -25
-14 -88 -48 -140 -75 -52 -27 -97 -53 -100 -57 -3 -4 -22 -13 -42 -21 -21 -7
-38 -17 -38 -21 0 -4 -4 -8 -9 -8 -4 0 -41 -18 -82 -41 -85 -47 -102 -49 -164
-20 -24 11 -49 21 -55 21 -6 0 -18 4 -28 10 -9 5 -71 30 -137 56 -66 25 -133
52 -150 59 -68 28 -216 87 -228 89 -15 4 -38 13 -96 38 -24 11 -53 21 -64 24
-11 2 -25 8 -31 14 -5 5 -16 10 -23 10 -7 0 -32 8 -56 19 -43 19 -134 55 -167
66 -3 1 -16 6 -30 12 -14 6 -79 32 -145 58 -66 25 -129 50 -140 55 -11 4 -40
16 -65 25 -25 9 -58 23 -75 30 -16 7 -77 31 -135 54 -58 22 -118 46 -135 52
-16 7 -35 13 -41 14 -6 2 -27 10 -45 18 -19 9 -140 57 -269 107 -129 51 -248
98 -265 105 -16 7 -61 25 -100 39 -38 15 -79 31 -90 36 -11 5 -44 18 -73 29
l-53 19 -11 -26 c-6 -15 -12 -29 -13 -32 -1 -3 -5 -14 -10 -25 -28 -70 -35
-88 -35 -95 0 -4 19 -15 43 -25 23 -9 54 -24 70 -32 15 -8 27 -11 27 -7 0 3 6
2 13 -3 6 -5 35 -18 62 -28 28 -9 64 -23 80 -30 17 -7 102 -41 190 -75 191
-74 187 -72 247 -99 26 -12 52 -21 58 -21 6 0 29 -9 53 -19 23 -11 125 -52
227 -91 102 -39 194 -75 205 -80 11 -5 45 -19 75 -30 30 -12 65 -26 78 -31 12
-5 32 -13 45 -18 12 -5 40 -16 62 -25 72 -28 100 -39 105 -40 6 -2 364 -143
395 -156 11 -5 97 -39 190 -75 94 -37 184 -72 200 -79 17 -7 57 -23 90 -36 33
-12 74 -28 92 -36 17 -8 36 -14 41 -14 25 0 45 -36 68 -122 1 -5 2 -9 4 -10 1
-2 3 -11 5 -20 2 -10 10 -37 19 -60 15 -43 133 -417 162 -513 8 -27 19 -57 23
-65 7 -13 23 -68 26 -90 0 -3 6 -18 12 -35 6 -16 35 -104 63 -195 28 -91 58
-183 65 -205 8 -22 44 -134 80 -250 37 -115 76 -237 87 -270 10 -33 21 -67 23
-75 2 -8 24 -80 50 -160 26 -79 48 -149 49 -155 1 -5 4 -14 7 -20 4 -5 10 -23
14 -40 9 -32 9 -32 17 -55 27 -77 168 -528 168 -538 0 -7 4 -12 8 -12 4 0 8
-10 10 -23 1 -12 8 -40 15 -62 12 -34 18 -40 43 -41 16 0 35 -3 41 -7 6 -4 14
-4 17 1 5 9 47 9 63 -1 7 -4 14 -4 17 1 6 9 59 8 75 -3 6 -3 11 -3 11 2 0 4
29 8 65 8 36 0 65 -4 65 -8 0 -4 8 -3 18 2 10 5 24 6 31 2 10 -7 7 -19 -15
-57 -16 -27 -32 -51 -36 -52 -4 -2 -8 -10 -8 -19 0 -8 -10 -29 -22 -46 -13
-18 -32 -50 -44 -72 -24 -47 -100 -179 -123 -215 -8 -14 -14 -28 -13 -32 1 -5
-2 -8 -8 -8 -5 0 -10 -4 -10 -9 0 -5 -33 -66 -74 -135 -41 -69 -72 -126 -68
-126 4 0 2 -4 -3 -8 -13 -9 -105 -168 -105 -182 0 -5 -3 -10 -8 -10 -4 0 -12
-9 -17 -20 -35 -68 -79 -147 -91 -161 -8 -8 -14 -19 -14 -22 0 -6 -50 -93
-131 -230 -16 -27 -29 -53 -29 -58 0 -5 -5 -9 -10 -9 -6 0 -9 -3 -8 -7 1 -5
-19 -45 -46 -90 -26 -45 -47 -85 -46 -89 1 -4 -2 -10 -7 -13 -5 -3 -36 -52
-67 -109 -32 -56 -62 -105 -67 -108 -5 -3 -7 -9 -4 -14 3 -4 -2 -13 -10 -20
-8 -7 -15 -19 -15 -26 0 -8 -4 -14 -10 -14 -5 0 -10 -6 -10 -14 0 -7 -7 -19
-15 -26 -9 -7 -13 -15 -11 -17 3 -3 -11 -29 -29 -58 l-34 -52 27 -14 c15 -8
29 -16 32 -19 7 -9 92 -56 113 -63 12 -5 21 0 28 16 5 12 15 31 22 42 7 11 54
94 106 185 51 91 101 176 110 190 10 14 31 50 47 80 16 30 32 56 37 58 4 2 7
7 7 12 0 5 22 47 50 95 27 48 50 91 50 96 0 5 5 9 10 9 6 0 10 4 10 10 0 5 19
42 43 82 24 40 46 80 50 88 4 8 15 29 26 45 24 40 57 97 94 165 16 30 36 62
43 70 7 8 17 26 23 40 6 14 22 43 35 65 14 22 33 56 44 75 10 19 44 79 75 132
31 53 57 102 57 107 0 6 4 11 9 11 5 0 12 8 15 18 9 23 38 76 45 82 4 3 22 34
40 70 19 36 39 72 46 80 12 15 126 214 156 272 14 28 21 31 63 32 27 1 50 -2
53 -7 2 -4 10 -4 16 0 16 10 48 10 70 0 9 -4 17 -4 17 0 0 10 122 9 138 0 6
-4 13 -4 16 1 3 5 20 7 38 5 40 -5 43 -5 91 -1 21 2 41 0 44 -4 2 -5 9 -5 15
-1 15 9 101 9 115 0 7 -4 14 -4 17 1 5 9 47 9 63 -1 7 -4 14 -4 17 1 6 9 59 8
75 -3 6 -3 11 -3 11 2 0 10 122 9 138 -1 7 -4 10 -12 7 -17 -10 -14 13 -11 40
7 14 9 34 14 45 11 11 -3 20 -1 20 4 0 5 4 8 9 7 5 -2 8 0 7 4 -2 13 34 33
519 278 264 133 645 326 848 429 276 140 371 183 382 176 8 -6 134 -90 279
-187 145 -98 267 -178 271 -178 4 0 13 -6 19 -13 6 -7 112 -80 236 -162 124
-83 229 -153 235 -158 5 -4 46 -31 90 -60 44 -28 82 -55 83 -59 2 -5 9 -8 17
-8 7 0 18 -7 25 -15 7 -8 16 -15 20 -15 4 0 29 33 55 73 26 39 52 74 57 75 20
8 5 39 -31 65 -22 15 -42 27 -46 27 -3 0 -18 11 -33 25 -15 14 -30 25 -34 25
-10 0 -162 103 -166 113 -2 4 -10 7 -17 7 -7 0 -15 3 -17 8 -1 4 -75 54 -163
112 -88 58 -162 107 -165 110 -3 3 -116 80 -252 170 -136 91 -244 168 -240
172 4 4 54 30 112 59 58 28 113 58 123 67 9 8 17 12 17 9 0 -6 145 66 184 91
6 3 16 7 21 8 6 1 24 10 41 20 l30 19 -51 155 c-29 85 -54 162 -58 170 -7 19
-30 92 -33 105 -3 12 -163 494 -171 515 -3 8 -7 20 -9 25 -1 6 -10 33 -19 60
-10 28 -19 55 -20 60 -1 6 -5 17 -8 25 -3 8 -58 173 -122 365 -64 193 -118
357 -122 365 -3 8 -7 20 -8 25 0 6 -4 17 -7 25 -7 16 -88 259 -92 275 -2 6 -6
17 -9 25 -7 19 -101 303 -102 310 0 3 -45 136 -99 297 l-97 292 -67 -35 c-75
-38 -82 -40 -82 -20 0 7 -10 15 -22 17 -13 2 -251 4 -530 3 -508 0 -508 0
-503 20 6 31 27 117 61 251 3 11 7 31 10 45 3 14 12 50 20 80 9 30 18 66 20
78 3 13 25 106 50 205 25 100 47 189 49 197 2 8 20 80 40 160 20 80 39 156 41
169 3 14 7 28 10 33 3 5 7 18 10 31 6 32 10 52 39 162 14 55 28 107 29 115 2
8 9 35 16 60 7 25 14 53 16 63 2 10 6 27 9 37 3 10 8 27 10 37 3 10 9 38 16
63 6 25 12 52 14 60 2 8 16 60 30 115 15 55 28 109 29 120 2 11 6 27 9 35 6
15 36 129 42 163 2 9 1 17 -3 18 -4 0 -14 2 -22 4 -143 38 -159 40 -164 23z"/>
</g>
</svg>
