<?xml version="1.0" encoding="UTF-8" standalone="no"?>
<!-- Created with Inkscape (http://www.inkscape.org/) -->

<svg
   xmlns:dc="http://purl.org/dc/elements/1.1/"
   xmlns:cc="http://creativecommons.org/ns#"
   xmlns:rdf="http://www.w3.org/1999/02/22-rdf-syntax-ns#"
   xmlns:svg="http://www.w3.org/2000/svg"
   xmlns="http://www.w3.org/2000/svg"
   xmlns:xlink="http://www.w3.org/1999/xlink"
   xmlns:sodipodi="http://sodipodi.sourceforge.net/DTD/sodipodi-0.dtd"
   xmlns:inkscape="http://www.inkscape.org/namespaces/inkscape"
   width="297mm"
   height="210mm"
   viewBox="0 0 1052.3622 744.09448"
   id="svg11680"
   version="1.1"
   inkscape:version="0.91 r13725"
   sodipodi:docname="phaseAngleBisector.svg">
  <sodipodi:namedview
     id="base"
     pagecolor="#ffffff"
     bordercolor="#666666"
     borderopacity="1.0"
     inkscape:pageopacity="0.0"
     inkscape:pageshadow="2"
     inkscape:zoom="2.8284271"
     inkscape:cx="281.33432"
     inkscape:cy="547.99922"
     inkscape:document-units="px"
     inkscape:current-layer="layer1"
     showgrid="false"
     showborder="false"
     inkscape:window-width="1600"
     inkscape:window-height="878"
     inkscape:window-x="1592"
     inkscape:window-y="-8"
     inkscape:window-maximized="1" />
  <defs
     id="defs11682">
    <radialGradient
       inkscape:collect="always"
       xlink:href="#linearGradient7021"
       id="radialGradient7027"
       cx="-655.9278"
       cy="15.883931"
       fx="-655.9278"
       fy="15.883931"
       r="202.02797"
       gradientTransform="matrix(1.0642225,-0.06091306,0.11796316,2.0609031,692.8754,469.07338)"
       gradientUnits="userSpaceOnUse"
       spreadMethod="pad" />
    <linearGradient
       inkscape:collect="always"
       id="linearGradient7021">
      <stop
         style="stop-color:#000000;stop-opacity:0.6"
         offset="0"
         id="stop7023" />
      <stop
         id="stop7031"
         offset="0.70822769"
         style="stop-color:#000000;stop-opacity:0.6" />
      <stop
         style="stop-color:#ffffff;stop-opacity:0"
         offset="1"
         id="stop7025" />
    </linearGradient>
    <marker
       inkscape:isstock="true"
       style="overflow:visible"
       id="Arrow1Mend"
       refX="0"
       refY="0"
       orient="auto"
       inkscape:stockid="Arrow1Mend">
      <path
         transform="matrix(-0.4,0,0,-0.4,-4,0)"
         style="fill:#4d4d4d;fill-opacity:1;fill-rule:evenodd;stroke:#4d4d4d;stroke-width:1pt;stroke-opacity:1"
         d="M 0,0 5,-5 -12.5,0 5,5 0,0 Z"
         id="path8789"
         inkscape:connector-curvature="0" />
    </marker>
    <marker
       inkscape:isstock="true"
       style="overflow:visible"
       id="Arrow1Mend-5"
       refX="0"
       refY="0"
       orient="auto"
       inkscape:stockid="Arrow1Mend">
      <path
         transform="matrix(-0.4,0,0,-0.4,-4,0)"
         style="fill:#4d4d4d;fill-opacity:1;fill-rule:evenodd;stroke:#4d4d4d;stroke-width:1pt;stroke-opacity:1"
         d="M 0,0 5,-5 -12.5,0 5,5 0,0 Z"
         id="path8789-3"
         inkscape:connector-curvature="0" />
    </marker>
    <marker
       inkscape:isstock="true"
       style="overflow:visible"
       id="Arrow1Mend-0"
       refX="0"
       refY="0"
       orient="auto"
       inkscape:stockid="Arrow1Mend">
      <path
         transform="matrix(-0.4,0,0,-0.4,-4,0)"
         style="fill:#000000;fill-opacity:1;fill-rule:evenodd;stroke:#000000;stroke-width:1pt;stroke-opacity:1"
         d="M 0,0 5,-5 -12.5,0 5,5 0,0 Z"
         id="path8789-0"
         inkscape:connector-curvature="0" />
    </marker>
  </defs>
  <metadata
     id="metadata11685">
    <rdf:RDF>
      <cc:Work
         rdf:about="">
        <dc:format>image/svg+xml</dc:format>
        <dc:type
           rdf:resource="http://purl.org/dc/dcmitype/StillImage" />
        <dc:title></dc:title>
      </cc:Work>
    </rdf:RDF>
  </metadata>
  <g
     transform="translate(0,-308.26772)"
     id="layer1"
     inkscape:groupmode="layer"
     inkscape:label="Layer 1">
    <g
       transform="matrix(0.27800978,0,0,0.27800978,182.80348,332.23174)"
       id="g12378">
      <g
         id="g6882"
         inkscape:label="Lines of Longitude"
         transform="translate(89.422987,522.56946)">
        <path
           inkscape:connector-curvature="0"
           id="path6884"
           d="M 3.5130597e-7,200 A 13.110929,200 0 0 1 -11.354397,100 a 13.110929,200 0 0 1 0,-200 A 13.110929,200 0 0 1 2.5717493e-7,-200"
           style="fill:none;stroke:#000000;stroke-width:1"
           transform="matrix(0.99971413,0.02390954,-0.02390954,0.99971413,0,0)" />
        <path
           inkscape:connector-curvature="0"
           id="path6886"
           d="M 1.6395207e-6,200 A 61.187798,200 0 0 1 -52.990187,100 a 61.187798,200 0 0 1 0,-200 A 61.187798,200 0 0 1 1.2002176e-6,-200"
           style="fill:none;stroke:#000000;stroke-width:1"
           transform="matrix(0.99313678,0.11695872,-0.11695872,0.99313678,0,0)" />
        <path
           inkscape:connector-curvature="0"
           id="path6888"
           d="M 2.8160066e-6,200 A 105.09489,200 0 0 1 -91.014841,100 105.09489,200 0 0 1 -91.014842,-100 105.09489,200 0 0 1 2.0614688e-6,-200"
           style="fill:none;stroke:#000000;stroke-width:1"
           transform="matrix(0.97440693,0.22479129,-0.22479129,0.97440693,0,0)" />
        <path
           inkscape:connector-curvature="0"
           id="path6890"
           d="M 3.8005884e-6,200 A 141.84001,200 0 0 1 -122.83705,100 a 141.84001,200 0 0 1 0,-200 A 141.84001,200 0 0 1 2.7822358e-6,-200"
           style="fill:none;stroke:#000000;stroke-width:1"
           transform="matrix(0.93056388,0.36612958,-0.36612958,0.93056388,0,0)" />
        <path
           inkscape:connector-curvature="0"
           id="path6892"
           d="M 4.5261677e-6,200 A 168.91902,200 0 0 1 -146.28816,100 a 168.91902,200 0 0 1 0,-200 A 168.91902,200 0 0 1 3.313399e-6,-200"
           style="fill:none;stroke:#000000;stroke-width:1"
           transform="matrix(0.81875266,0.57414639,-0.57414639,0.81875266,0,0)" />
        <path
           inkscape:connector-curvature="0"
           id="path6894"
           d="M 4.9432982e-6,200 A 184.48656,200 0 0 1 -159.77004,100 a 184.48656,200 0 0 1 0,-200 A 184.48656,200 0 0 1 3.618761e-6,-200"
           style="fill:none;stroke:#000000;stroke-width:1"
           transform="matrix(0.4941068,0.86940122,-0.86940122,0.4941068,0,0)" />
        <path
           inkscape:connector-curvature="0"
           id="path6896"
           d="M 3.6775121e-6,-200 A 187.48172,200 0 0 1 187.48172,-7.1795872e-7 187.48172,200 0 0 1 5.0235534e-6,200"
           style="fill:none;stroke:#000000;stroke-width:1"
           transform="matrix(0.20030865,-0.97973284,0.97973284,0.20030865,0,0)" />
        <path
           inkscape:connector-curvature="0"
           id="path6898"
           d="M 3.4856477e-6,-200 A 177.70036,200 0 0 1 177.70036,-7.1795872e-7 177.70036,200 0 0 1 4.761463e-6,200"
           style="fill:none;stroke:#000000;stroke-width:1"
           transform="matrix(0.70948003,-0.70472554,0.70472554,0.70948003,0,0)" />
        <path
           inkscape:connector-curvature="0"
           id="path6900"
           d="M 3.0562438e-6,-200 A 155.8091,200 0 0 1 155.8091,-7.1795872e-7 155.8091,200 0 0 1 4.1748888e-6,200"
           style="fill:none;stroke:#000000;stroke-width:1"
           transform="matrix(0.89189224,-0.45224798,0.45224798,0.89189224,0,0)" />
        <path
           inkscape:connector-curvature="0"
           id="path6902"
           d="M 2.4185632e-6,-200 A 123.29977,200 0 0 1 123.29977,-7.1795872e-7 123.29977,200 0 0 1 3.3038046e-6,200"
           style="fill:none;stroke:#000000;stroke-width:1"
           transform="matrix(0.95853209,-0.2849846,0.2849846,0.95853209,0,0)" />
        <path
           inkscape:connector-curvature="0"
           id="path6904"
           d="M 1.6160627e-6,-200 A 82.387825,200 0 0 1 82.387825,-7.1795872e-7 82.387825,200 0 0 1 2.2075733e-6,200"
           style="fill:none;stroke:#000000;stroke-width:1"
           transform="matrix(0.98637029,-0.16454074,0.16454074,0.98637029,0,0)" />
        <path
           inkscape:connector-curvature="0"
           id="path6906"
           d="M 7.0343174e-7,-200 A 35.861362,200 0 0 1 35.861362,-7.1795872e-7 35.861362,200 0 0 1 9.6090152e-7,200"
           style="fill:none;stroke:#000000;stroke-width:1"
           transform="matrix(0.99779737,-0.06633555,0.06633555,0.99779737,0,0)" />
      </g>
      <g
         id="g6908"
         inkscape:label="Lines of Latitude"
         transform="translate(89.422987,522.56946)">
        <path
           inkscape:connector-curvature="0"
           id="path6910"
           d="M 77.625834,184.32163 A 100,34.203014 0 0 1 1.1794897e-6,196.96255 100,34.203014 0 0 1 -77.625832,184.32163"
           style="fill:none;stroke:#000000;stroke-width:1" />
        <path
           inkscape:connector-curvature="0"
           id="path6912"
           d="M 131.72135,150.49783 A 141.42136,48.369953 0 0 1 -1.1603769e-6,181.26256 141.42136,48.369953 0 0 1 -131.72135,150.49783"
           style="fill:none;stroke:#000000;stroke-width:1" />
        <path
           inkscape:connector-curvature="0"
           id="path6914"
           d="M 169.3377,106.41799 A 173.20508,59.240627 0 0 1 2.042936e-6,153.20989 173.20508,59.240627 0 0 1 -169.3377,106.41799"
           style="fill:none;stroke:#000000;stroke-width:1" />
        <path
           inkscape:connector-curvature="0"
           id="path6916"
           d="M 192.26426,55.085994 A 193.18517,66.074219 0 0 1 -3.9033262e-6,114.71629 193.18517,66.074219 0 0 1 -192.26426,55.085991"
           style="fill:none;stroke:#000000;stroke-width:1" />
        <path
           inkscape:connector-curvature="0"
           id="path6918"
           d="M 200,0 A 200,68.405029 0 0 1 99.999997,59.240494 200,68.405029 0 0 1 -100.00001,59.240492 200,68.405029 0 0 1 -200,-3.1746915e-6"
           style="fill:none;stroke:#000000;stroke-width:1" />
        <path
           inkscape:connector-curvature="0"
           id="path6920"
           d="m 192.26426,-55.085995 a 193.18517,66.074219 0 0 1 -90.2764,62.5600385 193.18517,66.074219 0 0 1 -203.97571,2.2e-6 193.18517,66.074219 0 0 1 -90.27641,-62.5600367"
           style="fill:none;stroke:#000000;stroke-width:1" />
        <path
           inkscape:connector-curvature="0"
           id="path6922"
           d="m 169.3377,-106.41799 a 173.20508,59.240627 0 0 1 -72.373697,61.536279 173.20508,59.240627 0 0 1 -193.928012,-2e-6 173.20508,59.240627 0 0 1 -72.373691,-61.536277"
           style="fill:none;stroke:#000000;stroke-width:1" />
        <path
           inkscape:connector-curvature="0"
           id="path6924"
           d="m 131.72135,-150.49783 a 141.42136,48.369953 0 0 1 -46.385837,56.17681 141.42136,48.369953 0 0 1 -170.671019,10e-7 141.42136,48.369953 0 0 1 -46.385844,-56.176811"
           style="fill:none;stroke:#000000;stroke-width:1" />
        <path
           inkscape:connector-curvature="0"
           id="path6926"
           d="m 77.625835,-184.32163 a 100,34.203014 0 0 1 -9.391653,46.56563 100,34.203014 0 0 1 -136.468366,0 100,34.203014 0 0 1 -9.391649,-46.56563"
           style="fill:none;stroke:#000000;stroke-width:1" />
        <path
           inkscape:connector-curvature="0"
           id="path6928"
           d="M 51.763809,-181.53467 A 51.763809,17.705265 0 0 1 0,-163.8294 51.763809,17.705265 0 0 1 -51.763809,-181.53467 51.763809,17.705265 0 0 1 0,-199.23993 a 51.763809,17.705265 0 0 1 51.763809,17.70526 z"
           style="fill:none;stroke:#000000;stroke-width:1" />
      </g>
      <path
         inkscape:connector-curvature="0"
         id="path6930"
         d="m 289.42299,522.56946 a 200,200 0 0 1 -200.000003,200 200,200 0 0 1 -199.999997,-200 200,200 0 0 1 199.999997,-200 200,200 0 0 1 200.000003,200 z"
         style="fill:none;stroke:#000000;stroke-width:1" />
      <path
         inkscape:connector-curvature="0"
         id="path7019"
         d="M 292.85853,512.8242 A 200.625,202.02797 87.316458 0 1 100.44528,722.68804 200.625,202.02797 87.316458 0 1 -110.75431,531.74191 200.625,202.02797 87.316458 0 1 81.658947,321.87806 200.625,202.02797 87.316458 0 1 292.85853,512.8242 Z"
         style="opacity:1;fill:url(#radialGradient7027);fill-opacity:1;stroke:none;stroke-width:2.4000001;stroke-miterlimit:4;stroke-dasharray:none;stroke-dashoffset:0;stroke-opacity:1" />
    </g>
    <g
       id="g7427-5-2"
       transform="matrix(1.2853547,0,0,1.2853547,268.78742,-437.70737)">
      <path
         id="rect7274-7-7"
         d="m -42.476562,800.00195 c -0.103677,0 -0.185547,0.0838 -0.185547,0.1875 l 0,6.34571 c 0,0.10367 0.08187,0.18554 0.185547,0.18554 l 5.082031,0 0,-6.71875 -5.082031,0 z m 5.302734,0 0,6.71875 20.0625,0 0,-6.71875 -20.0625,0 z m 20.285156,0 0,6.71875 5.365234,0 c 0.103678,0 0.185547,-0.0819 0.185547,-0.18554 l 0,-6.34571 c 0,-0.10367 -0.08187,-0.1875 -0.185547,-0.1875 l -5.365234,0 z"
         style="opacity:1;fill:#00004e;fill-opacity:1;stroke:none;stroke-width:2.07440567;stroke-miterlimit:4;stroke-dasharray:none;stroke-dashoffset:0;stroke-opacity:1"
         inkscape:connector-curvature="0" />
      <circle
         clip-path="none"
         r="5.8508062"
         cy="803.36218"
         cx="-27"
         id="path7272-3-7"
         style="opacity:1;fill:#c09200;fill-opacity:1;stroke:none;stroke-width:2.44799995;stroke-miterlimit:4;stroke-dasharray:none;stroke-dashoffset:0;stroke-opacity:1" />
      <ellipse
         ry="1.2232238"
         rx="1.1533253"
         cy="806.15906"
         cx="-29.046875"
         id="path7387-5-4"
         style="opacity:1;fill:#000000;fill-opacity:1;stroke:#000000;stroke-width:0.11780228;stroke-miterlimit:4;stroke-dasharray:none;stroke-dashoffset:0;stroke-opacity:1" />
      <rect
         clip-path="none"
         y="797.70593"
         x="-25.65625"
         height="11.308594"
         width="0.15625"
         id="rect7396-9-6"
         style="opacity:1;fill:#000000;fill-opacity:1;stroke:none;stroke-width:0.2;stroke-miterlimit:4;stroke-dasharray:none;stroke-dashoffset:0;stroke-opacity:1" />
    </g>
    <path
       sodipodi:nodetypes="cc"
       inkscape:connector-curvature="0"
       id="path8774"
       d="m 260.92322,590.61951 167.96061,-61.8694"
       style="fill:#4d4d4d;fill-rule:evenodd;stroke:#4d4d4d;stroke-width:1.3;stroke-linecap:butt;stroke-linejoin:miter;stroke-miterlimit:4;stroke-dasharray:none;stroke-opacity:1;marker-end:url(#Arrow1Mend)" />
    <text
       sodipodi:linespacing="125%"
       id="text10196"
       y="573.6156"
       x="351.00629"
       style="font-style:normal;font-weight:normal;font-size:17.5px;line-height:125%;font-family:sans-serif;letter-spacing:0px;word-spacing:0px;fill:#000000;fill-opacity:1;stroke:none;stroke-width:1px;stroke-linecap:butt;stroke-linejoin:miter;stroke-opacity:1"
       xml:space="preserve"><tspan
         style="font-style:normal;font-variant:normal;font-weight:normal;font-stretch:normal;font-size:15px;font-family:'Linux Biolinum O';-inkscape-font-specification:'Linux Biolinum O'"
         y="573.6156"
         x="351.00629"
         id="tspan10198"
         sodipodi:role="line">To sun</tspan></text>
    <path
       sodipodi:nodetypes="cc"
       inkscape:connector-curvature="0"
       id="path8774-2"
       d="M 233.13332,582.12781 219.04611,503.14952"
       style="fill:#4d4d4d;fill-rule:evenodd;stroke:#4d4d4d;stroke-width:1.3;stroke-linecap:butt;stroke-linejoin:miter;stroke-miterlimit:4;stroke-dasharray:none;stroke-opacity:1;marker-end:url(#Arrow1Mend-5)" />
    <path
       transform="matrix(0.99818252,-0.06026317,0.06026317,0.99818252,0,0)"
       style="opacity:1;fill:none;fill-opacity:1;stroke:#4d4d4d;stroke-width:1.29999995;stroke-miterlimit:4;stroke-dasharray:none;stroke-dashoffset:0;stroke-opacity:1"
       inkscape:transform-center-x="-1.66653"
       inkscape:transform-center-y="-1.0427191"
       d="m 195.68481,579.50186 c 13.69562,-2.21747 34.66974,9.1818 39.46631,22.20025"
       id="path15169"
       inkscape:connector-curvature="0"
       sodipodi:nodetypes="cc" />
    <path
       sodipodi:nodetypes="cc"
       inkscape:connector-curvature="0"
       id="path8774-22"
       d="m 245.38637,587.4311 43.50981,-89.80011"
       style="fill:#000000;fill-rule:evenodd;stroke:#000000;stroke-width:1.77587354;stroke-linecap:butt;stroke-linejoin:miter;stroke-miterlimit:4;stroke-dasharray:none;stroke-opacity:1;marker-end:url(#Arrow1Mend-0)" />
    <path
       style="fill:none;fill-rule:evenodd;stroke:#4d4d4d;stroke-width:1px;stroke-linecap:butt;stroke-linejoin:miter;stroke-opacity:1"
       d="m 261.18757,580.01487 5.21491,-6.89429"
       id="path29905"
       inkscape:connector-curvature="0" />
    <path
       style="fill:none;fill-rule:evenodd;stroke:#4d4d4d;stroke-width:1px;stroke-linecap:butt;stroke-linejoin:miter;stroke-opacity:1"
       d="m 240.79144,570.68693 2.07817,-8.39093"
       id="path29905-5"
       inkscape:connector-curvature="0" />
    <text
       sodipodi:linespacing="125%"
       id="text10196-4"
       y="532.12048"
       x="279.98209"
       style="font-style:normal;font-weight:normal;font-size:17.5px;line-height:125%;font-family:sans-serif;letter-spacing:0px;word-spacing:0px;fill:#000000;fill-opacity:1;stroke:none;stroke-width:1px;stroke-linecap:butt;stroke-linejoin:miter;stroke-opacity:1"
       xml:space="preserve"><tspan
         style="font-style:normal;font-variant:normal;font-weight:normal;font-stretch:normal;font-size:15px;font-family:'Linux Biolinum O';-inkscape-font-specification:'Linux Biolinum O'"
         y="532.12048"
         x="279.98209"
         id="tspan10198-2"
         sodipodi:role="line">PAB</tspan></text>
  </g>
</svg>
